<?xml version="1.0" standalone="no"?>
<!DOCTYPE svg PUBLIC "-//W3C//DTD SVG 20010904//EN"
 "http://www.w3.org/TR/2001/REC-SVG-20010904/DTD/svg10.dtd">
<svg version="1.0" xmlns="http://www.w3.org/2000/svg"
 width="1024.000000pt" height="1024.000000pt" viewBox="0 0 1024.000000 1024.000000"
 preserveAspectRatio="xMidYMid meet">

<g transform="translate(0.000000,1024.000000) scale(0.100000,-0.100000)"
fill="#fff" stroke="none">
<path d="M8771 8220 c-1 -80 -1 -1333 -1 -2785 0 -1738 -3 -2678 -10 -2750
-30 -317 -171 -594 -376 -741 -119 -85 -284 -144 -457 -163 -136 -15 -5941
-15 -6091 0 -59 6 -109 9 -111 7 -2 -2 47 -30 108 -62 165 -87 296 -121 507
-130 169 -8 1841 -15 4065 -18 l1840 -2 78 27 c44 15 95 36 115 46 21 11 58
29 84 40 26 12 49 30 53 41 3 11 13 20 22 20 30 0 138 140 184 240 45 96 74
299 72 505 -4 667 -2 4033 3 4572 7 664 3 789 -27 1013 -6 41 -17 100 -26 130
-8 30 -19 78 -23 105 -6 37 -8 12 -9 -95z"/>
<path d="M3323 8013 c-10 -4 -13 -243 -13 -1147 0 -830 -3 -1159 -12 -1201
-17 -86 -60 -143 -138 -183 -60 -31 -70 -34 -136 -30 -101 7 -184 47 -269 132
-36 36 -73 66 -81 66 -17 0 -318 -296 -368 -362 -40 -53 -31 -74 72 -177 124
-125 246 -202 392 -249 239 -76 533 -63 762 33 43 18 86 31 96 28 10 -2 26 5
36 16 11 12 25 21 31 21 7 0 16 7 19 16 3 9 -12 2 -39 -17 -25 -18 -47 -30
-50 -27 -3 2 20 22 51 43 122 84 230 233 283 392 55 164 55 153 58 1408 2 638
0 1178 -5 1200 l-8 40 -334 2 c-184 1 -341 -1 -347 -4z"/>
<path d="M4623 8013 c-10 -4 -13 -325 -13 -1558 0 -854 3 -1560 6 -1569 6 -14
80 -16 743 -16 441 0 770 4 821 10 185 23 391 90 526 172 30 18 86 61 123 95
38 34 72 59 76 55 5 -4 5 -2 2 4 -4 7 11 39 33 72 129 193 157 492 67 718 -55
137 -181 292 -300 368 -31 20 -89 50 -129 66 -46 19 -65 30 -50 31 12 1 26 2
31 3 5 0 39 25 75 55 58 49 72 65 77 89 1 4 34 41 74 83 149 156 201 351 161
599 -71 436 -394 680 -956 720 -144 10 -1343 13 -1367 3z m1233 -592 c230 -23
355 -117 384 -291 27 -160 -47 -308 -191 -380 -107 -54 -158 -62 -456 -67
l-273 -5 0 369 c0 203 3 373 7 376 9 10 422 8 529 -2z m837 -830 c-12 -10 -19
-22 -15 -26 4 -5 2 -5 -4 -2 -6 4 -36 -7 -65 -23 -30 -16 -58 -30 -64 -30 -5
0 14 13 42 29 29 16 65 38 80 50 35 25 56 27 26 2z m-173 -91 c-8 -5 -19 -10
-25 -10 -5 0 -3 5 5 10 8 5 20 10 25 10 6 0 3 -5 -5 -10z m-533 -365 c156 -30
268 -112 312 -231 19 -49 22 -74 19 -145 -5 -106 -36 -175 -108 -243 -108
-101 -181 -116 -582 -116 l-308 0 1 363 c0 246 4 354 10 336 l10 -27 39 21
c21 12 36 25 34 29 -3 5 97 9 223 10 l228 -1 -275 5 -275 5 297 3 c229 1 314
-1 375 -13z"/>
<path d="M2275 4127 c-30 -30 -35 -42 -35 -82 0 -40 5 -52 34 -81 29 -29 41
-34 79 -34 150 0 153 210 3 227 -42 5 -48 3 -81 -30z"/>
<path d="M2632 3668 l3 -493 90 0 90 0 3 33 c2 17 6 32 9 32 3 0 21 -13 39
-30 95 -83 255 -72 361 24 22 19 42 33 46 30 3 -3 5 1 4 8 -1 7 12 40 29 73
27 55 29 68 29 170 0 128 -16 174 -85 249 -63 68 -117 91 -220 91 -72 0 -94
-4 -142 -27 l-58 -27 -2 177 -3 177 -98 3 -97 3 2 -493z m410 6 c79 -41 115
-189 67 -274 -60 -106 -209 -105 -262 2 -24 49 -32 124 -18 176 14 49 62 109
94 115 31 7 87 -2 119 -19z"/>
<path d="M7252 3668 l3 -493 89 0 90 0 8 34 9 34 27 -26 c46 -43 92 -60 162
-61 85 0 143 27 209 100 63 69 92 143 99 250 8 139 -45 259 -140 317 -83 51
-236 47 -320 -9 l-38 -24 0 185 0 185 -100 0 -100 0 2 -492z m424 -3 c91 -69
100 -220 18 -297 -112 -104 -255 -28 -253 136 1 63 19 131 35 131 5 0 20 8 34
18 13 9 20 17 16 17 -5 0 -18 -7 -28 -17 -11 -10 -18 -12 -18 -4 0 6 15 20 33
32 45 28 114 22 163 -16z"/>
<path d="M4920 4031 c-24 -7 -25 -11 -28 -93 l-3 -87 -52 -3 -52 -3 -3 -54
c-5 -91 0 -101 57 -101 l48 0 6 -187 c3 -109 10 -203 17 -223 16 -45 56 -89
97 -106 39 -17 172 -18 227 -3 l39 11 -6 69 c-3 38 -8 73 -11 78 -4 6 -21 5
-42 -1 -41 -11 -76 -5 -98 18 -13 13 -16 44 -16 179 l0 164 83 3 82 3 -3 55
c-5 103 -2 100 -86 100 l-73 0 -7 86 c-3 48 -9 90 -12 95 -6 10 -127 10 -164
0z"/>
<path d="M3697 3850 c-86 -22 -180 -99 -225 -185 -24 -45 -27 -61 -27 -155 0
-101 1 -108 34 -168 118 -217 431 -256 601 -76 84 88 113 189 90 310 -22 114
-98 208 -208 256 -53 24 -201 34 -265 18z m193 -178 c39 -25 59 -53 75 -109
26 -85 5 -157 -62 -212 -69 -57 -144 -50 -207 19 -47 52 -62 109 -47 180 14
69 35 99 92 128 49 25 103 23 149 -6z"/>
<path d="M4605 3841 c-22 -10 -53 -33 -70 -51 l-30 -32 -5 44 -5 43 -90 0 -90
0 -3 -337 -2 -338 94 0 c76 0 95 3 100 16 3 9 6 91 6 183 0 184 14 258 53 286
14 10 45 15 94 15 85 0 86 1 81 115 l-3 70 -45 3 c-28 1 -60 -5 -85 -17z"/>
<path d="M6690 3851 c-96 -31 -177 -102 -219 -190 -23 -49 -26 -69 -26 -156 0
-86 3 -107 25 -150 33 -67 99 -131 168 -163 51 -24 68 -27 167 -27 122 0 169
15 246 75 l39 31 -30 60 c-17 32 -33 59 -35 59 -3 0 -34 -14 -68 -32 -53 -28
-73 -32 -137 -33 -82 0 -108 12 -149 70 l-21 30 27 6 c16 4 114 12 218 19 105
6 198 17 209 22 16 9 18 18 13 77 -11 130 -66 220 -168 276 -47 25 -66 30
-144 32 -49 1 -101 -1 -115 -6z m158 -155 c40 -20 63 -50 65 -82 l2 -29 -130
-6 c-71 -3 -132 -4 -134 -2 -3 2 5 24 17 48 36 75 114 105 180 71z"/>
<path d="M2260 3485 c0 -389 -3 -420 -48 -444 -12 -6 -36 -11 -55 -11 l-35 0
-16 -71 c-9 -39 -13 -76 -10 -81 4 -6 36 -9 80 -6 97 6 174 44 218 105 60 85
60 84 64 496 l3 377 -100 0 -101 0 0 -365z"/>
<path d="M5323 3823 c3 -15 54 -167 114 -338 l108 -310 82 -3 c76 -3 83 -1 94
20 6 12 40 105 75 207 35 101 65 178 68 170 2 -8 32 -95 66 -194 33 -99 63
-186 65 -192 3 -9 30 -13 89 -13 l84 0 32 88 c108 298 200 576 192 584 -5 5
-46 8 -92 6 l-84 -3 -65 -202 c-35 -112 -67 -203 -70 -203 -3 0 -36 92 -72
203 l-65 202 -80 0 -79 0 -69 -209 -68 -209 -54 169 c-29 93 -59 187 -67 209
l-14 40 -98 3 -98 3 6 -28z"/>
</g>
</svg>
